<svg xmlns="http://www.w3.org/2000/svg" width="790" height="130" viewBox="0 0 790 130" fill="none">
  <!-- Background card -->
  <rect width="790" height="130" rx="12" fill="#0d1117" stroke="#30363d" stroke-width="1"/>

  <!-- Month labels -->
  <text x="40" y="17" fill="#8b949e" font-size="11" font-family="'Segoe UI', Ubuntu, 'Helvetica Neue', sans-serif">May</text>
  <text x="124" y="17" fill="#8b949e" font-size="11" font-family="'Segoe UI', Ubuntu, 'Helvetica Neue', sans-serif">Jul</text>
  <text x="180" y="17" fill="#8b949e" font-size="11" font-family="'Segoe UI', Ubuntu, 'Helvetica Neue', sans-serif">Aug</text>
  <text x="236" y="17" fill="#8b949e" font-size="11" font-family="'Segoe UI', Ubuntu, 'Helvetica Neue', sans-serif">Sep</text>
  <text x="306" y="17" fill="#8b949e" font-size="11" font-family="'Segoe UI', Ubuntu, 'Helvetica Neue', sans-serif">Oct</text>
  <text x="362" y="17" fill="#8b949e" font-size="11" font-family="'Segoe UI', Ubuntu, 'Helvetica Neue', sans-serif">Nov</text>
  <text x="418" y="17" fill="#8b949e" font-size="11" font-family="'Segoe UI', Ubuntu, 'Helvetica Neue', sans-serif">Dec</text>
  <text x="488" y="17" fill="#8b949e" font-size="11" font-family="'Segoe UI', Ubuntu, 'Helvetica Neue', sans-serif">Jan</text>
  <text x="544" y="17" fill="#8b949e" font-size="11" font-family="'Segoe UI', Ubuntu, 'Helvetica Neue', sans-serif">Feb</text>
  <text x="600" y="17" fill="#8b949e" font-size="11" font-family="'Segoe UI', Ubuntu, 'Helvetica Neue', sans-serif">Mar</text>
  <text x="670" y="17" fill="#8b949e" font-size="11" font-family="'Segoe UI', Ubuntu, 'Helvetica Neue', sans-serif">Apr</text>
  <text x="726" y="17" fill="#8b949e" font-size="11" font-family="'Segoe UI', Ubuntu, 'Helvetica Neue', sans-serif">May</text>

  <!-- Day-of-week labels -->
  <text x="32" y="35" text-anchor="end" fill="#8b949e" font-size="10" font-family="'Segoe UI', Ubuntu, 'Helvetica Neue', sans-serif">Mon</text>
  <text x="32" y="63" text-anchor="end" fill="#8b949e" font-size="10" font-family="'Segoe UI', Ubuntu, 'Helvetica Neue', sans-serif">Wed</text>
  <text x="32" y="91" text-anchor="end" fill="#8b949e" font-size="10" font-family="'Segoe UI', Ubuntu, 'Helvetica Neue', sans-serif">Fri</text>
  <text x="32" y="119" text-anchor="end" fill="#8b949e" font-size="10" font-family="'Segoe UI', Ubuntu, 'Helvetica Neue', sans-serif">Sun</text>

  <!-- Heatmap grid -->
  <rect x="40" y="25" width="11" height="11" rx="2" fill="#161b22"><title>0 submissions on 2025-05-26</title></rect>
  <rect x="40" y="39" width="11" height="11" rx="2" fill="#161b22"><title>0 submissions on 2025-05-27</title></rect>
  <rect x="40" y="53" width="11" height="11" rx="2" fill="#161b22"><title>0 submissions on 2025-05-28</title></rect>
  <rect x="40" y="67" width="11" height="11" rx="2" fill="#161b22"><title>0 submissions on 2025-05-29</title></rect>
  <rect x="40" y="81" width="11" height="11" rx="2" fill="#161b22"><title>0 submissions on 2025-05-30</title></rect>
  <rect x="40" y="95" width="11" height="11" rx="2" fill="#161b22"><title>0 submissions on 2025-05-31</title></rect>
  <rect x="40" y="109" width="11" height="11" rx="2" fill="#161b22"><title>0 submissions on 2025-06-01</title></rect>
  <rect x="54" y="25" width="11" height="11" rx="2" fill="#161b22"><title>0 submissions on 2025-06-02</title></rect>
  <rect x="54" y="39" width="11" height="11" rx="2" fill="#161b22"><title>0 submissions on 2025-06-03</title></rect>
  <rect x="54" y="53" width="11" height="11" rx="2" fill="#161b22"><title>0 submissions on 2025-06-04</title></rect>
  <rect x="54" y="67" width="11" height="11" rx="2" fill="#161b22"><title>0 submissions on 2025-06-05</title></rect>
  <rect x="54" y="81" width="11" height="11" rx="2" fill="#161b22"><title>0 submissions on 2025-06-06</title></rect>
  <rect x="54" y="95" width="11" height="11" rx="2" fill="#161b22"><title>0 submissions on 2025-06-07</title></rect>
  <rect x="54" y="109" width="11" height="11" rx="2" fill="#161b22"><title>0 submissions on 2025-06-08</title></rect>
  <rect x="68" y="25" width="11" height="11" rx="2" fill="#161b22"><title>0 submissions on 2025-06-09</title></rect>
  <rect x="68" y="39" width="11" height="11" rx="2" fill="#161b22"><title>0 submissions on 2025-06-10</title></rect>
  <rect x="68" y="53" width="11" height="11" rx="2" fill="#161b22"><title>0 submissions on 2025-06-11</title></rect>
  <rect x="68" y="67" width="11" height="11" rx="2" fill="#161b22"><title>0 submissions on 2025-06-12</title></rect>
  <rect x="68" y="81" width="11" height="11" rx="2" fill="#161b22"><title>0 submissions on 2025-06-13</title></rect>
  <rect x="68" y="95" width="11" height="11" rx="2" fill="#161b22"><title>0 submissions on 2025-06-14</title></rect>
  <rect x="68" y="109" width="11" height="11" rx="2" fill="#161b22"><title>0 submissions on 2025-06-15</title></rect>
  <rect x="82" y="25" width="11" height="11" rx="2" fill="#161b22"><title>0 submissions on 2025-06-16</title></rect>
  <rect x="82" y="39" width="11" height="11" rx="2" fill="#161b22"><title>0 submissions on 2025-06-17</title></rect>
  <rect x="82" y="53" width="11" height="11" rx="2" fill="#161b22"><title>0 submissions on 2025-06-18</title></rect>
  <rect x="82" y="67" width="11" height="11" rx="2" fill="#161b22"><title>0 submissions on 2025-06-19</title></rect>
  <rect x="82" y="81" width="11" height="11" rx="2" fill="#161b22"><title>0 submissions on 2025-06-20</title></rect>
  <rect x="82" y="95" width="11" height="11" rx="2" fill="#161b22"><title>0 submissions on 2025-06-21</title></rect>
  <rect x="82" y="109" width="11" height="11" rx="2" fill="#161b22"><title>0 submissions on 2025-06-22</title></rect>
  <rect x="96" y="25" width="11" height="11" rx="2" fill="#161b22"><title>0 submissions on 2025-06-23</title></rect>
  <rect x="96" y="39" width="11" height="11" rx="2" fill="#161b22"><title>0 submissions on 2025-06-24</title></rect>
  <rect x="96" y="53" width="11" height="11" rx="2" fill="#161b22"><title>0 submissions on 2025-06-25</title></rect>
  <rect x="96" y="67" width="11" height="11" rx="2" fill="#161b22"><title>0 submissions on 2025-06-26</title></rect>
  <rect x="96" y="81" width="11" height="11" rx="2" fill="#161b22"><title>0 submissions on 2025-06-27</title></rect>
  <rect x="96" y="95" width="11" height="11" rx="2" fill="#161b22"><title>0 submissions on 2025-06-28</title></rect>
  <rect x="96" y="109" width="11" height="11" rx="2" fill="#161b22"><title>0 submissions on 2025-06-29</title></rect>
  <rect x="110" y="25" width="11" height="11" rx="2" fill="#161b22"><title>0 submissions on 2025-06-30</title></rect>
  <rect x="110" y="39" width="11" height="11" rx="2" fill="#161b22"><title>0 submissions on 2025-07-01</title></rect>
  <rect x="110" y="53" width="11" height="11" rx="2" fill="#161b22"><title>0 submissions on 2025-07-02</title></rect>
  <rect x="110" y="67" width="11" height="11" rx="2" fill="#161b22"><title>0 submissions on 2025-07-03</title></rect>
  <rect x="110" y="81" width="11" height="11" rx="2" fill="#161b22"><title>0 submissions on 2025-07-04</title></rect>
  <rect x="110" y="95" width="11" height="11" rx="2" fill="#161b22"><title>0 submissions on 2025-07-05</title></rect>
  <rect x="110" y="109" width="11" height="11" rx="2" fill="#161b22"><title>0 submissions on 2025-07-06</title></rect>
  <rect x="124" y="25" width="11" height="11" rx="2" fill="#161b22"><title>0 submissions on 2025-07-07</title></rect>
  <rect x="124" y="39" width="11" height="11" rx="2" fill="#161b22"><title>0 submissions on 2025-07-08</title></rect>
  <rect x="124" y="53" width="11" height="11" rx="2" fill="#161b22"><title>0 submissions on 2025-07-09</title></rect>
  <rect x="124" y="67" width="11" height="11" rx="2" fill="#161b22"><title>0 submissions on 2025-07-10</title></rect>
  <rect x="124" y="81" width="11" height="11" rx="2" fill="#161b22"><title>0 submissions on 2025-07-11</title></rect>
  <rect x="124" y="95" width="11" height="11" rx="2" fill="#161b22"><title>0 submissions on 2025-07-12</title></rect>
  <rect x="124" y="109" width="11" height="11" rx="2" fill="#161b22"><title>0 submissions on 2025-07-13</title></rect>
  <rect x="138" y="25" width="11" height="11" rx="2" fill="#161b22"><title>0 submissions on 2025-07-14</title></rect>
  <rect x="138" y="39" width="11" height="11" rx="2" fill="#161b22"><title>0 submissions on 2025-07-15</title></rect>
  <rect x="138" y="53" width="11" height="11" rx="2" fill="#161b22"><title>0 submissions on 2025-07-16</title></rect>
  <rect x="138" y="67" width="11" height="11" rx="2" fill="#161b22"><title>0 submissions on 2025-07-17</title></rect>
  <rect x="138" y="81" width="11" height="11" rx="2" fill="#161b22"><title>0 submissions on 2025-07-18</title></rect>
  <rect x="138" y="95" width="11" height="11" rx="2" fill="#0e4429"><title>1 submission on 2025-07-19</title></rect>
  <rect x="138" y="109" width="11" height="11" rx="2" fill="#161b22"><title>0 submissions on 2025-07-20</title></rect>
  <rect x="152" y="25" width="11" height="11" rx="2" fill="#161b22"><title>0 submissions on 2025-07-21</title></rect>
  <rect x="152" y="39" width="11" height="11" rx="2" fill="#161b22"><title>0 submissions on 2025-07-22</title></rect>
  <rect x="152" y="53" width="11" height="11" rx="2" fill="#161b22"><title>0 submissions on 2025-07-23</title></rect>
  <rect x="152" y="67" width="11" height="11" rx="2" fill="#161b22"><title>0 submissions on 2025-07-24</title></rect>
  <rect x="152" y="81" width="11" height="11" rx="2" fill="#161b22"><title>0 submissions on 2025-07-25</title></rect>
  <rect x="152" y="95" width="11" height="11" rx="2" fill="#26a641"><title>7 submissions on 2025-07-26</title></rect>
  <rect x="152" y="109" width="11" height="11" rx="2" fill="#161b22"><title>0 submissions on 2025-07-27</title></rect>
  <rect x="166" y="25" width="11" height="11" rx="2" fill="#161b22"><title>0 submissions on 2025-07-28</title></rect>
  <rect x="166" y="39" width="11" height="11" rx="2" fill="#161b22"><title>0 submissions on 2025-07-29</title></rect>
  <rect x="166" y="53" width="11" height="11" rx="2" fill="#161b22"><title>0 submissions on 2025-07-30</title></rect>
  <rect x="166" y="67" width="11" height="11" rx="2" fill="#161b22"><title>0 submissions on 2025-07-31</title></rect>
  <rect x="166" y="81" width="11" height="11" rx="2" fill="#161b22"><title>0 submissions on 2025-08-01</title></rect>
  <rect x="166" y="95" width="11" height="11" rx="2" fill="#161b22"><title>0 submissions on 2025-08-02</title></rect>
  <rect x="166" y="109" width="11" height="11" rx="2" fill="#161b22"><title>0 submissions on 2025-08-03</title></rect>
  <rect x="180" y="25" width="11" height="11" rx="2" fill="#161b22"><title>0 submissions on 2025-08-04</title></rect>
  <rect x="180" y="39" width="11" height="11" rx="2" fill="#161b22"><title>0 submissions on 2025-08-05</title></rect>
  <rect x="180" y="53" width="11" height="11" rx="2" fill="#161b22"><title>0 submissions on 2025-08-06</title></rect>
  <rect x="180" y="67" width="11" height="11" rx="2" fill="#161b22"><title>0 submissions on 2025-08-07</title></rect>
  <rect x="180" y="81" width="11" height="11" rx="2" fill="#161b22"><title>0 submissions on 2025-08-08</title></rect>
  <rect x="180" y="95" width="11" height="11" rx="2" fill="#26a641"><title>6 submissions on 2025-08-09</title></rect>
  <rect x="180" y="109" width="11" height="11" rx="2" fill="#161b22"><title>0 submissions on 2025-08-10</title></rect>
  <rect x="194" y="25" width="11" height="11" rx="2" fill="#161b22"><title>0 submissions on 2025-08-11</title></rect>
  <rect x="194" y="39" width="11" height="11" rx="2" fill="#161b22"><title>0 submissions on 2025-08-12</title></rect>
  <rect x="194" y="53" width="11" height="11" rx="2" fill="#0e4429"><title>1 submission on 2025-08-13</title></rect>
  <rect x="194" y="67" width="11" height="11" rx="2" fill="#161b22"><title>0 submissions on 2025-08-14</title></rect>
  <rect x="194" y="81" width="11" height="11" rx="2" fill="#161b22"><title>0 submissions on 2025-08-15</title></rect>
  <rect x="194" y="95" width="11" height="11" rx="2" fill="#161b22"><title>0 submissions on 2025-08-16</title></rect>
  <rect x="194" y="109" width="11" height="11" rx="2" fill="#161b22"><title>0 submissions on 2025-08-17</title></rect>
  <rect x="208" y="25" width="11" height="11" rx="2" fill="#0e4429"><title>1 submission on 2025-08-18</title></rect>
  <rect x="208" y="39" width="11" height="11" rx="2" fill="#161b22"><title>0 submissions on 2025-08-19</title></rect>
  <rect x="208" y="53" width="11" height="11" rx="2" fill="#161b22"><title>0 submissions on 2025-08-20</title></rect>
  <rect x="208" y="67" width="11" height="11" rx="2" fill="#161b22"><title>0 submissions on 2025-08-21</title></rect>
  <rect x="208" y="81" width="11" height="11" rx="2" fill="#0e4429"><title>1 submission on 2025-08-22</title></rect>
  <rect x="208" y="95" width="11" height="11" rx="2" fill="#161b22"><title>0 submissions on 2025-08-23</title></rect>
  <rect x="208" y="109" width="11" height="11" rx="2" fill="#161b22"><title>0 submissions on 2025-08-24</title></rect>
  <rect x="222" y="25" width="11" height="11" rx="2" fill="#161b22"><title>0 submissions on 2025-08-25</title></rect>
  <rect x="222" y="39" width="11" height="11" rx="2" fill="#161b22"><title>0 submissions on 2025-08-26</title></rect>
  <rect x="222" y="53" width="11" height="11" rx="2" fill="#161b22"><title>0 submissions on 2025-08-27</title></rect>
  <rect x="222" y="67" width="11" height="11" rx="2" fill="#161b22"><title>0 submissions on 2025-08-28</title></rect>
  <rect x="222" y="81" width="11" height="11" rx="2" fill="#161b22"><title>0 submissions on 2025-08-29</title></rect>
  <rect x="222" y="95" width="11" height="11" rx="2" fill="#161b22"><title>0 submissions on 2025-08-30</title></rect>
  <rect x="222" y="109" width="11" height="11" rx="2" fill="#161b22"><title>0 submissions on 2025-08-31</title></rect>
  <rect x="236" y="25" width="11" height="11" rx="2" fill="#161b22"><title>0 submissions on 2025-09-01</title></rect>
  <rect x="236" y="39" width="11" height="11" rx="2" fill="#161b22"><title>0 submissions on 2025-09-02</title></rect>
  <rect x="236" y="53" width="11" height="11" rx="2" fill="#006d32"><title>4 submissions on 2025-09-03</title></rect>
  <rect x="236" y="67" width="11" height="11" rx="2" fill="#006d32"><title>4 submissions on 2025-09-04</title></rect>
  <rect x="236" y="81" width="11" height="11" rx="2" fill="#0e4429"><title>1 submission on 2025-09-05</title></rect>
  <rect x="236" y="95" width="11" height="11" rx="2" fill="#161b22"><title>0 submissions on 2025-09-06</title></rect>
  <rect x="236" y="109" width="11" height="11" rx="2" fill="#006d32"><title>4 submissions on 2025-09-07</title></rect>
  <rect x="250" y="25" width="11" height="11" rx="2" fill="#006d32"><title>3 submissions on 2025-09-08</title></rect>
  <rect x="250" y="39" width="11" height="11" rx="2" fill="#0e4429"><title>2 submissions on 2025-09-09</title></rect>
  <rect x="250" y="53" width="11" height="11" rx="2" fill="#0e4429"><title>2 submissions on 2025-09-10</title></rect>
  <rect x="250" y="67" width="11" height="11" rx="2" fill="#006d32"><title>3 submissions on 2025-09-11</title></rect>
  <rect x="250" y="81" width="11" height="11" rx="2" fill="#0e4429"><title>1 submission on 2025-09-12</title></rect>
  <rect x="250" y="95" width="11" height="11" rx="2" fill="#161b22"><title>0 submissions on 2025-09-13</title></rect>
  <rect x="250" y="109" width="11" height="11" rx="2" fill="#161b22"><title>0 submissions on 2025-09-14</title></rect>
  <rect x="264" y="25" width="11" height="11" rx="2" fill="#161b22"><title>0 submissions on 2025-09-15</title></rect>
  <rect x="264" y="39" width="11" height="11" rx="2" fill="#161b22"><title>0 submissions on 2025-09-16</title></rect>
  <rect x="264" y="53" width="11" height="11" rx="2" fill="#161b22"><title>0 submissions on 2025-09-17</title></rect>
  <rect x="264" y="67" width="11" height="11" rx="2" fill="#161b22"><title>0 submissions on 2025-09-18</title></rect>
  <rect x="264" y="81" width="11" height="11" rx="2" fill="#161b22"><title>0 submissions on 2025-09-19</title></rect>
  <rect x="264" y="95" width="11" height="11" rx="2" fill="#161b22"><title>0 submissions on 2025-09-20</title></rect>
  <rect x="264" y="109" width="11" height="11" rx="2" fill="#161b22"><title>0 submissions on 2025-09-21</title></rect>
  <rect x="278" y="25" width="11" height="11" rx="2" fill="#161b22"><title>0 submissions on 2025-09-22</title></rect>
  <rect x="278" y="39" width="11" height="11" rx="2" fill="#161b22"><title>0 submissions on 2025-09-23</title></rect>
  <rect x="278" y="53" width="11" height="11" rx="2" fill="#161b22"><title>0 submissions on 2025-09-24</title></rect>
  <rect x="278" y="67" width="11" height="11" rx="2" fill="#161b22"><title>0 submissions on 2025-09-25</title></rect>
  <rect x="278" y="81" width="11" height="11" rx="2" fill="#161b22"><title>0 submissions on 2025-09-26</title></rect>
  <rect x="278" y="95" width="11" height="11" rx="2" fill="#161b22"><title>0 submissions on 2025-09-27</title></rect>
  <rect x="278" y="109" width="11" height="11" rx="2" fill="#161b22"><title>0 submissions on 2025-09-28</title></rect>
  <rect x="292" y="25" width="11" height="11" rx="2" fill="#161b22"><title>0 submissions on 2025-09-29</title></rect>
  <rect x="292" y="39" width="11" height="11" rx="2" fill="#161b22"><title>0 submissions on 2025-09-30</title></rect>
  <rect x="292" y="53" width="11" height="11" rx="2" fill="#161b22"><title>0 submissions on 2025-10-01</title></rect>
  <rect x="292" y="67" width="11" height="11" rx="2" fill="#161b22"><title>0 submissions on 2025-10-02</title></rect>
  <rect x="292" y="81" width="11" height="11" rx="2" fill="#161b22"><title>0 submissions on 2025-10-03</title></rect>
  <rect x="292" y="95" width="11" height="11" rx="2" fill="#161b22"><title>0 submissions on 2025-10-04</title></rect>
  <rect x="292" y="109" width="11" height="11" rx="2" fill="#161b22"><title>0 submissions on 2025-10-05</title></rect>
  <rect x="306" y="25" width="11" height="11" rx="2" fill="#161b22"><title>0 submissions on 2025-10-06</title></rect>
  <rect x="306" y="39" width="11" height="11" rx="2" fill="#161b22"><title>0 submissions on 2025-10-07</title></rect>
  <rect x="306" y="53" width="11" height="11" rx="2" fill="#161b22"><title>0 submissions on 2025-10-08</title></rect>
  <rect x="306" y="67" width="11" height="11" rx="2" fill="#161b22"><title>0 submissions on 2025-10-09</title></rect>
  <rect x="306" y="81" width="11" height="11" rx="2" fill="#161b22"><title>0 submissions on 2025-10-10</title></rect>
  <rect x="306" y="95" width="11" height="11" rx="2" fill="#161b22"><title>0 submissions on 2025-10-11</title></rect>
  <rect x="306" y="109" width="11" height="11" rx="2" fill="#161b22"><title>0 submissions on 2025-10-12</title></rect>
  <rect x="320" y="25" width="11" height="11" rx="2" fill="#161b22"><title>0 submissions on 2025-10-13</title></rect>
  <rect x="320" y="39" width="11" height="11" rx="2" fill="#161b22"><title>0 submissions on 2025-10-14</title></rect>
  <rect x="320" y="53" width="11" height="11" rx="2" fill="#161b22"><title>0 submissions on 2025-10-15</title></rect>
  <rect x="320" y="67" width="11" height="11" rx="2" fill="#161b22"><title>0 submissions on 2025-10-16</title></rect>
  <rect x="320" y="81" width="11" height="11" rx="2" fill="#161b22"><title>0 submissions on 2025-10-17</title></rect>
  <rect x="320" y="95" width="11" height="11" rx="2" fill="#161b22"><title>0 submissions on 2025-10-18</title></rect>
  <rect x="320" y="109" width="11" height="11" rx="2" fill="#161b22"><title>0 submissions on 2025-10-19</title></rect>
  <rect x="334" y="25" width="11" height="11" rx="2" fill="#161b22"><title>0 submissions on 2025-10-20</title></rect>
  <rect x="334" y="39" width="11" height="11" rx="2" fill="#161b22"><title>0 submissions on 2025-10-21</title></rect>
  <rect x="334" y="53" width="11" height="11" rx="2" fill="#161b22"><title>0 submissions on 2025-10-22</title></rect>
  <rect x="334" y="67" width="11" height="11" rx="2" fill="#161b22"><title>0 submissions on 2025-10-23</title></rect>
  <rect x="334" y="81" width="11" height="11" rx="2" fill="#161b22"><title>0 submissions on 2025-10-24</title></rect>
  <rect x="334" y="95" width="11" height="11" rx="2" fill="#161b22"><title>0 submissions on 2025-10-25</title></rect>
  <rect x="334" y="109" width="11" height="11" rx="2" fill="#161b22"><title>0 submissions on 2025-10-26</title></rect>
  <rect x="348" y="25" width="11" height="11" rx="2" fill="#161b22"><title>0 submissions on 2025-10-27</title></rect>
  <rect x="348" y="39" width="11" height="11" rx="2" fill="#161b22"><title>0 submissions on 2025-10-28</title></rect>
  <rect x="348" y="53" width="11" height="11" rx="2" fill="#161b22"><title>0 submissions on 2025-10-29</title></rect>
  <rect x="348" y="67" width="11" height="11" rx="2" fill="#161b22"><title>0 submissions on 2025-10-30</title></rect>
  <rect x="348" y="81" width="11" height="11" rx="2" fill="#161b22"><title>0 submissions on 2025-10-31</title></rect>
  <rect x="348" y="95" width="11" height="11" rx="2" fill="#161b22"><title>0 submissions on 2025-11-01</title></rect>
  <rect x="348" y="109" width="11" height="11" rx="2" fill="#161b22"><title>0 submissions on 2025-11-02</title></rect>
  <rect x="362" y="25" width="11" height="11" rx="2" fill="#161b22"><title>0 submissions on 2025-11-03</title></rect>
  <rect x="362" y="39" width="11" height="11" rx="2" fill="#161b22"><title>0 submissions on 2025-11-04</title></rect>
  <rect x="362" y="53" width="11" height="11" rx="2" fill="#161b22"><title>0 submissions on 2025-11-05</title></rect>
  <rect x="362" y="67" width="11" height="11" rx="2" fill="#161b22"><title>0 submissions on 2025-11-06</title></rect>
  <rect x="362" y="81" width="11" height="11" rx="2" fill="#161b22"><title>0 submissions on 2025-11-07</title></rect>
  <rect x="362" y="95" width="11" height="11" rx="2" fill="#161b22"><title>0 submissions on 2025-11-08</title></rect>
  <rect x="362" y="109" width="11" height="11" rx="2" fill="#161b22"><title>0 submissions on 2025-11-09</title></rect>
  <rect x="376" y="25" width="11" height="11" rx="2" fill="#161b22"><title>0 submissions on 2025-11-10</title></rect>
  <rect x="376" y="39" width="11" height="11" rx="2" fill="#161b22"><title>0 submissions on 2025-11-11</title></rect>
  <rect x="376" y="53" width="11" height="11" rx="2" fill="#0e4429"><title>2 submissions on 2025-11-12</title></rect>
  <rect x="376" y="67" width="11" height="11" rx="2" fill="#161b22"><title>0 submissions on 2025-11-13</title></rect>
  <rect x="376" y="81" width="11" height="11" rx="2" fill="#161b22"><title>0 submissions on 2025-11-14</title></rect>
  <rect x="376" y="95" width="11" height="11" rx="2" fill="#161b22"><title>0 submissions on 2025-11-15</title></rect>
  <rect x="376" y="109" width="11" height="11" rx="2" fill="#161b22"><title>0 submissions on 2025-11-16</title></rect>
  <rect x="390" y="25" width="11" height="11" rx="2" fill="#161b22"><title>0 submissions on 2025-11-17</title></rect>
  <rect x="390" y="39" width="11" height="11" rx="2" fill="#161b22"><title>0 submissions on 2025-11-18</title></rect>
  <rect x="390" y="53" width="11" height="11" rx="2" fill="#161b22"><title>0 submissions on 2025-11-19</title></rect>
  <rect x="390" y="67" width="11" height="11" rx="2" fill="#161b22"><title>0 submissions on 2025-11-20</title></rect>
  <rect x="390" y="81" width="11" height="11" rx="2" fill="#161b22"><title>0 submissions on 2025-11-21</title></rect>
  <rect x="390" y="95" width="11" height="11" rx="2" fill="#161b22"><title>0 submissions on 2025-11-22</title></rect>
  <rect x="390" y="109" width="11" height="11" rx="2" fill="#161b22"><title>0 submissions on 2025-11-23</title></rect>
  <rect x="404" y="25" width="11" height="11" rx="2" fill="#161b22"><title>0 submissions on 2025-11-24</title></rect>
  <rect x="404" y="39" width="11" height="11" rx="2" fill="#161b22"><title>0 submissions on 2025-11-25</title></rect>
  <rect x="404" y="53" width="11" height="11" rx="2" fill="#161b22"><title>0 submissions on 2025-11-26</title></rect>
  <rect x="404" y="67" width="11" height="11" rx="2" fill="#161b22"><title>0 submissions on 2025-11-27</title></rect>
  <rect x="404" y="81" width="11" height="11" rx="2" fill="#161b22"><title>0 submissions on 2025-11-28</title></rect>
  <rect x="404" y="95" width="11" height="11" rx="2" fill="#161b22"><title>0 submissions on 2025-11-29</title></rect>
  <rect x="404" y="109" width="11" height="11" rx="2" fill="#161b22"><title>0 submissions on 2025-11-30</title></rect>
  <rect x="418" y="25" width="11" height="11" rx="2" fill="#161b22"><title>0 submissions on 2025-12-01</title></rect>
  <rect x="418" y="39" width="11" height="11" rx="2" fill="#161b22"><title>0 submissions on 2025-12-02</title></rect>
  <rect x="418" y="53" width="11" height="11" rx="2" fill="#161b22"><title>0 submissions on 2025-12-03</title></rect>
  <rect x="418" y="67" width="11" height="11" rx="2" fill="#161b22"><title>0 submissions on 2025-12-04</title></rect>
  <rect x="418" y="81" width="11" height="11" rx="2" fill="#161b22"><title>0 submissions on 2025-12-05</title></rect>
  <rect x="418" y="95" width="11" height="11" rx="2" fill="#161b22"><title>0 submissions on 2025-12-06</title></rect>
  <rect x="418" y="109" width="11" height="11" rx="2" fill="#161b22"><title>0 submissions on 2025-12-07</title></rect>
  <rect x="432" y="25" width="11" height="11" rx="2" fill="#161b22"><title>0 submissions on 2025-12-08</title></rect>
  <rect x="432" y="39" width="11" height="11" rx="2" fill="#0e4429"><title>1 submission on 2025-12-09</title></rect>
  <rect x="432" y="53" width="11" height="11" rx="2" fill="#006d32"><title>4 submissions on 2025-12-10</title></rect>
  <rect x="432" y="67" width="11" height="11" rx="2" fill="#0e4429"><title>2 submissions on 2025-12-11</title></rect>
  <rect x="432" y="81" width="11" height="11" rx="2" fill="#0e4429"><title>1 submission on 2025-12-12</title></rect>
  <rect x="432" y="95" width="11" height="11" rx="2" fill="#006d32"><title>3 submissions on 2025-12-13</title></rect>
  <rect x="432" y="109" width="11" height="11" rx="2" fill="#0e4429"><title>2 submissions on 2025-12-14</title></rect>
  <rect x="446" y="25" width="11" height="11" rx="2" fill="#0e4429"><title>2 submissions on 2025-12-15</title></rect>
  <rect x="446" y="39" width="11" height="11" rx="2" fill="#0e4429"><title>1 submission on 2025-12-16</title></rect>
  <rect x="446" y="53" width="11" height="11" rx="2" fill="#0e4429"><title>2 submissions on 2025-12-17</title></rect>
  <rect x="446" y="67" width="11" height="11" rx="2" fill="#006d32"><title>4 submissions on 2025-12-18</title></rect>
  <rect x="446" y="81" width="11" height="11" rx="2" fill="#0e4429"><title>1 submission on 2025-12-19</title></rect>
  <rect x="446" y="95" width="11" height="11" rx="2" fill="#0e4429"><title>2 submissions on 2025-12-20</title></rect>
  <rect x="446" y="109" width="11" height="11" rx="2" fill="#0e4429"><title>1 submission on 2025-12-21</title></rect>
  <rect x="460" y="25" width="11" height="11" rx="2" fill="#0e4429"><title>1 submission on 2025-12-22</title></rect>
  <rect x="460" y="39" width="11" height="11" rx="2" fill="#0e4429"><title>1 submission on 2025-12-23</title></rect>
  <rect x="460" y="53" width="11" height="11" rx="2" fill="#0e4429"><title>1 submission on 2025-12-24</title></rect>
  <rect x="460" y="67" width="11" height="11" rx="2" fill="#0e4429"><title>1 submission on 2025-12-25</title></rect>
  <rect x="460" y="81" width="11" height="11" rx="2" fill="#0e4429"><title>1 submission on 2025-12-26</title></rect>
  <rect x="460" y="95" width="11" height="11" rx="2" fill="#006d32"><title>4 submissions on 2025-12-27</title></rect>
  <rect x="460" y="109" width="11" height="11" rx="2" fill="#0e4429"><title>1 submission on 2025-12-28</title></rect>
  <rect x="474" y="25" width="11" height="11" rx="2" fill="#0e4429"><title>1 submission on 2025-12-29</title></rect>
  <rect x="474" y="39" width="11" height="11" rx="2" fill="#0e4429"><title>1 submission on 2025-12-30</title></rect>
  <rect x="474" y="53" width="11" height="11" rx="2" fill="#161b22"><title>0 submissions on 2025-12-31</title></rect>
  <rect x="474" y="67" width="11" height="11" rx="2" fill="#0e4429"><title>2 submissions on 2026-01-01</title></rect>
  <rect x="474" y="81" width="11" height="11" rx="2" fill="#0e4429"><title>1 submission on 2026-01-02</title></rect>
  <rect x="474" y="95" width="11" height="11" rx="2" fill="#0e4429"><title>1 submission on 2026-01-03</title></rect>
  <rect x="474" y="109" width="11" height="11" rx="2" fill="#006d32"><title>4 submissions on 2026-01-04</title></rect>
  <rect x="488" y="25" width="11" height="11" rx="2" fill="#0e4429"><title>1 submission on 2026-01-05</title></rect>
  <rect x="488" y="39" width="11" height="11" rx="2" fill="#0e4429"><title>2 submissions on 2026-01-06</title></rect>
  <rect x="488" y="53" width="11" height="11" rx="2" fill="#0e4429"><title>1 submission on 2026-01-07</title></rect>
  <rect x="488" y="67" width="11" height="11" rx="2" fill="#0e4429"><title>1 submission on 2026-01-08</title></rect>
  <rect x="488" y="81" width="11" height="11" rx="2" fill="#0e4429"><title>2 submissions on 2026-01-09</title></rect>
  <rect x="488" y="95" width="11" height="11" rx="2" fill="#0e4429"><title>1 submission on 2026-01-10</title></rect>
  <rect x="488" y="109" width="11" height="11" rx="2" fill="#0e4429"><title>1 submission on 2026-01-11</title></rect>
  <rect x="502" y="25" width="11" height="11" rx="2" fill="#0e4429"><title>1 submission on 2026-01-12</title></rect>
  <rect x="502" y="39" width="11" height="11" rx="2" fill="#0e4429"><title>1 submission on 2026-01-13</title></rect>
  <rect x="502" y="53" width="11" height="11" rx="2" fill="#0e4429"><title>1 submission on 2026-01-14</title></rect>
  <rect x="502" y="67" width="11" height="11" rx="2" fill="#0e4429"><title>2 submissions on 2026-01-15</title></rect>
  <rect x="502" y="81" width="11" height="11" rx="2" fill="#0e4429"><title>1 submission on 2026-01-16</title></rect>
  <rect x="502" y="95" width="11" height="11" rx="2" fill="#0e4429"><title>1 submission on 2026-01-17</title></rect>
  <rect x="502" y="109" width="11" height="11" rx="2" fill="#0e4429"><title>2 submissions on 2026-01-18</title></rect>
  <rect x="516" y="25" width="11" height="11" rx="2" fill="#0e4429"><title>1 submission on 2026-01-19</title></rect>
  <rect x="516" y="39" width="11" height="11" rx="2" fill="#0e4429"><title>1 submission on 2026-01-20</title></rect>
  <rect x="516" y="53" width="11" height="11" rx="2" fill="#006d32"><title>4 submissions on 2026-01-21</title></rect>
  <rect x="516" y="67" width="11" height="11" rx="2" fill="#0e4429"><title>1 submission on 2026-01-22</title></rect>
  <rect x="516" y="81" width="11" height="11" rx="2" fill="#0e4429"><title>1 submission on 2026-01-23</title></rect>
  <rect x="516" y="95" width="11" height="11" rx="2" fill="#0e4429"><title>1 submission on 2026-01-24</title></rect>
  <rect x="516" y="109" width="11" height="11" rx="2" fill="#0e4429"><title>2 submissions on 2026-01-25</title></rect>
  <rect x="530" y="25" width="11" height="11" rx="2" fill="#0e4429"><title>2 submissions on 2026-01-26</title></rect>
  <rect x="530" y="39" width="11" height="11" rx="2" fill="#0e4429"><title>1 submission on 2026-01-27</title></rect>
  <rect x="530" y="53" width="11" height="11" rx="2" fill="#0e4429"><title>2 submissions on 2026-01-28</title></rect>
  <rect x="530" y="67" width="11" height="11" rx="2" fill="#0e4429"><title>1 submission on 2026-01-29</title></rect>
  <rect x="530" y="81" width="11" height="11" rx="2" fill="#0e4429"><title>1 submission on 2026-01-30</title></rect>
  <rect x="530" y="95" width="11" height="11" rx="2" fill="#006d32"><title>5 submissions on 2026-01-31</title></rect>
  <rect x="530" y="109" width="11" height="11" rx="2" fill="#0e4429"><title>2 submissions on 2026-02-01</title></rect>
  <rect x="544" y="25" width="11" height="11" rx="2" fill="#0e4429"><title>2 submissions on 2026-02-02</title></rect>
  <rect x="544" y="39" width="11" height="11" rx="2" fill="#0e4429"><title>1 submission on 2026-02-03</title></rect>
  <rect x="544" y="53" width="11" height="11" rx="2" fill="#0e4429"><title>1 submission on 2026-02-04</title></rect>
  <rect x="544" y="67" width="11" height="11" rx="2" fill="#0e4429"><title>1 submission on 2026-02-05</title></rect>
  <rect x="544" y="81" width="11" height="11" rx="2" fill="#0e4429"><title>1 submission on 2026-02-06</title></rect>
  <rect x="544" y="95" width="11" height="11" rx="2" fill="#0e4429"><title>1 submission on 2026-02-07</title></rect>
  <rect x="544" y="109" width="11" height="11" rx="2" fill="#0e4429"><title>1 submission on 2026-02-08</title></rect>
  <rect x="558" y="25" width="11" height="11" rx="2" fill="#0e4429"><title>2 submissions on 2026-02-09</title></rect>
  <rect x="558" y="39" width="11" height="11" rx="2" fill="#0e4429"><title>1 submission on 2026-02-10</title></rect>
  <rect x="558" y="53" width="11" height="11" rx="2" fill="#0e4429"><title>1 submission on 2026-02-11</title></rect>
  <rect x="558" y="67" width="11" height="11" rx="2" fill="#0e4429"><title>1 submission on 2026-02-12</title></rect>
  <rect x="558" y="81" width="11" height="11" rx="2" fill="#0e4429"><title>2 submissions on 2026-02-13</title></rect>
  <rect x="558" y="95" width="11" height="11" rx="2" fill="#0e4429"><title>1 submission on 2026-02-14</title></rect>
  <rect x="558" y="109" width="11" height="11" rx="2" fill="#0e4429"><title>2 submissions on 2026-02-15</title></rect>
  <rect x="572" y="25" width="11" height="11" rx="2" fill="#0e4429"><title>1 submission on 2026-02-16</title></rect>
  <rect x="572" y="39" width="11" height="11" rx="2" fill="#0e4429"><title>1 submission on 2026-02-17</title></rect>
  <rect x="572" y="53" width="11" height="11" rx="2" fill="#0e4429"><title>1 submission on 2026-02-18</title></rect>
  <rect x="572" y="67" width="11" height="11" rx="2" fill="#0e4429"><title>1 submission on 2026-02-19</title></rect>
  <rect x="572" y="81" width="11" height="11" rx="2" fill="#0e4429"><title>1 submission on 2026-02-20</title></rect>
  <rect x="572" y="95" width="11" height="11" rx="2" fill="#0e4429"><title>2 submissions on 2026-02-21</title></rect>
  <rect x="572" y="109" width="11" height="11" rx="2" fill="#0e4429"><title>2 submissions on 2026-02-22</title></rect>
  <rect x="586" y="25" width="11" height="11" rx="2" fill="#0e4429"><title>1 submission on 2026-02-23</title></rect>
  <rect x="586" y="39" width="11" height="11" rx="2" fill="#0e4429"><title>1 submission on 2026-02-24</title></rect>
  <rect x="586" y="53" width="11" height="11" rx="2" fill="#0e4429"><title>1 submission on 2026-02-25</title></rect>
  <rect x="586" y="67" width="11" height="11" rx="2" fill="#0e4429"><title>1 submission on 2026-02-26</title></rect>
  <rect x="586" y="81" width="11" height="11" rx="2" fill="#0e4429"><title>1 submission on 2026-02-27</title></rect>
  <rect x="586" y="95" width="11" height="11" rx="2" fill="#0e4429"><title>1 submission on 2026-02-28</title></rect>
  <rect x="586" y="109" width="11" height="11" rx="2" fill="#0e4429"><title>1 submission on 2026-03-01</title></rect>
  <rect x="600" y="25" width="11" height="11" rx="2" fill="#0e4429"><title>1 submission on 2026-03-02</title></rect>
  <rect x="600" y="39" width="11" height="11" rx="2" fill="#0e4429"><title>1 submission on 2026-03-03</title></rect>
  <rect x="600" y="53" width="11" height="11" rx="2" fill="#0e4429"><title>1 submission on 2026-03-04</title></rect>
  <rect x="600" y="67" width="11" height="11" rx="2" fill="#0e4429"><title>1 submission on 2026-03-05</title></rect>
  <rect x="600" y="81" width="11" height="11" rx="2" fill="#0e4429"><title>1 submission on 2026-03-06</title></rect>
  <rect x="600" y="95" width="11" height="11" rx="2" fill="#0e4429"><title>1 submission on 2026-03-07</title></rect>
  <rect x="600" y="109" width="11" height="11" rx="2" fill="#0e4429"><title>1 submission on 2026-03-08</title></rect>
  <rect x="614" y="25" width="11" height="11" rx="2" fill="#161b22"><title>0 submissions on 2026-03-09</title></rect>
  <rect x="614" y="39" width="11" height="11" rx="2" fill="#006d32"><title>3 submissions on 2026-03-10</title></rect>
  <rect x="614" y="53" width="11" height="11" rx="2" fill="#0e4429"><title>1 submission on 2026-03-11</title></rect>
  <rect x="614" y="67" width="11" height="11" rx="2" fill="#0e4429"><title>1 submission on 2026-03-12</title></rect>
  <rect x="614" y="81" width="11" height="11" rx="2" fill="#0e4429"><title>1 submission on 2026-03-13</title></rect>
  <rect x="614" y="95" width="11" height="11" rx="2" fill="#161b22"><title>0 submissions on 2026-03-14</title></rect>
  <rect x="614" y="109" width="11" height="11" rx="2" fill="#0e4429"><title>1 submission on 2026-03-15</title></rect>
  <rect x="628" y="25" width="11" height="11" rx="2" fill="#0e4429"><title>1 submission on 2026-03-16</title></rect>
  <rect x="628" y="39" width="11" height="11" rx="2" fill="#0e4429"><title>1 submission on 2026-03-17</title></rect>
  <rect x="628" y="53" width="11" height="11" rx="2" fill="#0e4429"><title>1 submission on 2026-03-18</title></rect>
  <rect x="628" y="67" width="11" height="11" rx="2" fill="#0e4429"><title>1 submission on 2026-03-19</title></rect>
  <rect x="628" y="81" width="11" height="11" rx="2" fill="#0e4429"><title>1 submission on 2026-03-20</title></rect>
  <rect x="628" y="95" width="11" height="11" rx="2" fill="#0e4429"><title>1 submission on 2026-03-21</title></rect>
  <rect x="628" y="109" width="11" height="11" rx="2" fill="#0e4429"><title>1 submission on 2026-03-22</title></rect>
  <rect x="642" y="25" width="11" height="11" rx="2" fill="#0e4429"><title>1 submission on 2026-03-23</title></rect>
  <rect x="642" y="39" width="11" height="11" rx="2" fill="#0e4429"><title>1 submission on 2026-03-24</title></rect>
  <rect x="642" y="53" width="11" height="11" rx="2" fill="#0e4429"><title>1 submission on 2026-03-25</title></rect>
  <rect x="642" y="67" width="11" height="11" rx="2" fill="#0e4429"><title>2 submissions on 2026-03-26</title></rect>
  <rect x="642" y="81" width="11" height="11" rx="2" fill="#0e4429"><title>2 submissions on 2026-03-27</title></rect>
  <rect x="642" y="95" width="11" height="11" rx="2" fill="#0e4429"><title>1 submission on 2026-03-28</title></rect>
  <rect x="642" y="109" width="11" height="11" rx="2" fill="#0e4429"><title>1 submission on 2026-03-29</title></rect>
  <rect x="656" y="25" width="11" height="11" rx="2" fill="#0e4429"><title>1 submission on 2026-03-30</title></rect>
  <rect x="656" y="39" width="11" height="11" rx="2" fill="#006d32"><title>3 submissions on 2026-03-31</title></rect>
  <rect x="656" y="53" width="11" height="11" rx="2" fill="#0e4429"><title>1 submission on 2026-04-01</title></rect>
  <rect x="656" y="67" width="11" height="11" rx="2" fill="#0e4429"><title>2 submissions on 2026-04-02</title></rect>
  <rect x="656" y="81" width="11" height="11" rx="2" fill="#0e4429"><title>1 submission on 2026-04-03</title></rect>
  <rect x="656" y="95" width="11" height="11" rx="2" fill="#0e4429"><title>1 submission on 2026-04-04</title></rect>
  <rect x="656" y="109" width="11" height="11" rx="2" fill="#0e4429"><title>1 submission on 2026-04-05</title></rect>
  <rect x="670" y="25" width="11" height="11" rx="2" fill="#0e4429"><title>1 submission on 2026-04-06</title></rect>
  <rect x="670" y="39" width="11" height="11" rx="2" fill="#0e4429"><title>1 submission on 2026-04-07</title></rect>
  <rect x="670" y="53" width="11" height="11" rx="2" fill="#0e4429"><title>1 submission on 2026-04-08</title></rect>
  <rect x="670" y="67" width="11" height="11" rx="2" fill="#0e4429"><title>1 submission on 2026-04-09</title></rect>
  <rect x="670" y="81" width="11" height="11" rx="2" fill="#0e4429"><title>1 submission on 2026-04-10</title></rect>
  <rect x="670" y="95" width="11" height="11" rx="2" fill="#006d32"><title>5 submissions on 2026-04-11</title></rect>
  <rect x="670" y="109" width="11" height="11" rx="2" fill="#0e4429"><title>1 submission on 2026-04-12</title></rect>
  <rect x="684" y="25" width="11" height="11" rx="2" fill="#0e4429"><title>1 submission on 2026-04-13</title></rect>
  <rect x="684" y="39" width="11" height="11" rx="2" fill="#0e4429"><title>1 submission on 2026-04-14</title></rect>
  <rect x="684" y="53" width="11" height="11" rx="2" fill="#0e4429"><title>1 submission on 2026-04-15</title></rect>
  <rect x="684" y="67" width="11" height="11" rx="2" fill="#0e4429"><title>1 submission on 2026-04-16</title></rect>
  <rect x="684" y="81" width="11" height="11" rx="2" fill="#0e4429"><title>1 submission on 2026-04-17</title></rect>
  <rect x="684" y="95" width="11" height="11" rx="2" fill="#161b22"><title>0 submissions on 2026-04-18</title></rect>
  <rect x="684" y="109" width="11" height="11" rx="2" fill="#0e4429"><title>1 submission on 2026-04-19</title></rect>
  <rect x="698" y="25" width="11" height="11" rx="2" fill="#0e4429"><title>1 submission on 2026-04-20</title></rect>
  <rect x="698" y="39" width="11" height="11" rx="2" fill="#0e4429"><title>1 submission on 2026-04-21</title></rect>
  <rect x="698" y="53" width="11" height="11" rx="2" fill="#0e4429"><title>1 submission on 2026-04-22</title></rect>
  <rect x="698" y="67" width="11" height="11" rx="2" fill="#0e4429"><title>1 submission on 2026-04-23</title></rect>
  <rect x="698" y="81" width="11" height="11" rx="2" fill="#0e4429"><title>1 submission on 2026-04-24</title></rect>
  <rect x="698" y="95" width="11" height="11" rx="2" fill="#006d32"><title>3 submissions on 2026-04-25</title></rect>
  <rect x="698" y="109" width="11" height="11" rx="2" fill="#0e4429"><title>1 submission on 2026-04-26</title></rect>
  <rect x="712" y="25" width="11" height="11" rx="2" fill="#0e4429"><title>1 submission on 2026-04-27</title></rect>
  <rect x="712" y="39" width="11" height="11" rx="2" fill="#0e4429"><title>1 submission on 2026-04-28</title></rect>
  <rect x="712" y="53" width="11" height="11" rx="2" fill="#006d32"><title>3 submissions on 2026-04-29</title></rect>
  <rect x="712" y="67" width="11" height="11" rx="2" fill="#0e4429"><title>2 submissions on 2026-04-30</title></rect>
  <rect x="712" y="81" width="11" height="11" rx="2" fill="#0e4429"><title>1 submission on 2026-05-01</title></rect>
  <rect x="712" y="95" width="11" height="11" rx="2" fill="#0e4429"><title>1 submission on 2026-05-02</title></rect>
  <rect x="712" y="109" width="11" height="11" rx="2" fill="#006d32"><title>3 submissions on 2026-05-03</title></rect>
  <rect x="726" y="25" width="11" height="11" rx="2" fill="#0e4429"><title>2 submissions on 2026-05-04</title></rect>
  <rect x="726" y="39" width="11" height="11" rx="2" fill="#0e4429"><title>1 submission on 2026-05-05</title></rect>
  <rect x="726" y="53" width="11" height="11" rx="2" fill="#0e4429"><title>1 submission on 2026-05-06</title></rect>
  <rect x="726" y="67" width="11" height="11" rx="2" fill="#0e4429"><title>2 submissions on 2026-05-07</title></rect>
  <rect x="726" y="81" width="11" height="11" rx="2" fill="#0e4429"><title>1 submission on 2026-05-08</title></rect>
  <rect x="726" y="95" width="11" height="11" rx="2" fill="#161b22"><title>0 submissions on 2026-05-09</title></rect>
  <rect x="726" y="109" width="11" height="11" rx="2" fill="#0e4429"><title>1 submission on 2026-05-10</title></rect>
  <rect x="740" y="25" width="11" height="11" rx="2" fill="#0e4429"><title>1 submission on 2026-05-11</title></rect>
  <rect x="740" y="39" width="11" height="11" rx="2" fill="#161b22"><title>0 submissions on 2026-05-12</title></rect>
  <rect x="740" y="53" width="11" height="11" rx="2" fill="#0e4429"><title>1 submission on 2026-05-13</title></rect>
  <rect x="740" y="67" width="11" height="11" rx="2" fill="#0e4429"><title>1 submission on 2026-05-14</title></rect>
  <rect x="740" y="81" width="11" height="11" rx="2" fill="#0e4429"><title>1 submission on 2026-05-15</title></rect>
  <rect x="740" y="95" width="11" height="11" rx="2" fill="#0e4429"><title>1 submission on 2026-05-16</title></rect>
  <rect x="740" y="109" width="11" height="11" rx="2" fill="#0e4429"><title>1 submission on 2026-05-17</title></rect>
  <rect x="754" y="25" width="11" height="11" rx="2" fill="#161b22"><title>0 submissions on 2026-05-18</title></rect>
  <rect x="754" y="39" width="11" height="11" rx="2" fill="#0e4429"><title>2 submissions on 2026-05-19</title></rect>
  <rect x="754" y="53" width="11" height="11" rx="2" fill="#0e4429"><title>1 submission on 2026-05-20</title></rect>
  <rect x="754" y="67" width="11" height="11" rx="2" fill="#161b22"><title>0 submissions on 2026-05-21</title></rect>
  <rect x="754" y="81" width="11" height="11" rx="2" fill="#006d32"><title>5 submissions on 2026-05-22</title></rect>
  <rect x="754" y="95" width="11" height="11" rx="2" fill="#006d32"><title>5 submissions on 2026-05-23</title></rect>
  <rect x="754" y="109" width="11" height="11" rx="2" fill="#26a641"><title>6 submissions on 2026-05-24</title></rect>
  <rect x="768" y="25" width="11" height="11" rx="2" fill="#26a641"><title>8 submissions on 2026-05-25</title></rect>
  <rect x="768" y="39" width="11" height="11" rx="2" fill="#161b22"><title>0 submissions on 2026-05-26</title></rect>
  <rect x="768" y="53" width="11" height="11" rx="2" fill="#161b22"><title>0 submissions on 2026-05-27</title></rect>
  <rect x="768" y="67" width="11" height="11" rx="2" fill="#161b22"><title>0 submissions on 2026-05-28</title></rect>
  <rect x="768" y="81" width="11" height="11" rx="2" fill="#161b22"><title>0 submissions on 2026-05-29</title></rect>
  <rect x="768" y="95" width="11" height="11" rx="2" fill="#161b22"><title>0 submissions on 2026-05-30</title></rect>
  <rect x="768" y="109" width="11" height="11" rx="2" fill="#161b22"><title>0 submissions on 2026-05-31</title></rect>
</svg>